<?xml version="1.0" encoding="UTF-8"?>
<svg xmlns="http://www.w3.org/2000/svg" xmlns:xlink="http://www.w3.org/1999/xlink" width="56px" height="56px" viewBox="0 0 56 56" version="1.1">
<g id="surface1">
<path style=" stroke:none;fill-rule:nonzero;fill:rgb(0%,0%,0%);fill-opacity:1;" d="M 8.871094 0.152344 C 8.398438 0.414062 8.324219 0.722656 8.3125 2.253906 C 8.3125 4.429688 8.707031 5.359375 9.929688 6.070312 L 10.488281 6.398438 L 10.5 15.640625 L 10.5 24.882812 L 10.007812 25.144531 C 7.832031 26.304688 7.789062 29.554688 9.929688 30.789062 L 10.488281 31.117188 L 10.488281 49.601562 L 9.929688 49.929688 C 8.71875 50.628906 8.3125 51.570312 8.3125 53.714844 C 8.3125 55.257812 8.398438 55.59375 8.871094 55.847656 C 9.328125 56.078125 46.671875 56.078125 47.128906 55.847656 C 47.601562 55.59375 47.6875 55.257812 47.6875 53.714844 C 47.6875 51.570312 47.28125 50.628906 46.070312 49.929688 L 45.511719 49.601562 L 45.511719 31.117188 L 46.070312 30.789062 C 48.210938 29.554688 48.167969 26.304688 45.992188 25.144531 L 45.5 24.882812 L 45.5 15.640625 L 45.511719 6.398438 L 46.070312 6.070312 C 47.28125 5.371094 47.6875 4.429688 47.6875 2.285156 C 47.6875 0.742188 47.601562 0.40625 47.128906 0.152344 C 46.691406 -0.0664062 9.273438 -0.078125 8.871094 0.152344 Z M 45.5 2.734375 C 45.5 3.414062 45.28125 3.980469 44.929688 4.179688 C 44.558594 4.386719 11.441406 4.386719 11.070312 4.179688 C 10.71875 3.980469 10.5 3.414062 10.5 2.734375 L 10.5 2.1875 L 45.5 2.1875 Z M 14.765625 7.515625 C 14.777344 11.734375 15.335938 15.542969 16.296875 17.894531 C 17.140625 19.960938 17.761719 20.847656 20.34375 23.625 C 21.328125 24.675781 22.609375 26.0625 23.199219 26.699219 L 24.28125 27.867188 L 21.195312 31.238281 C 17.335938 35.46875 16.691406 36.421875 15.871094 39.125 C 15.203125 41.300781 14.917969 43.378906 14.808594 47.007812 L 14.734375 49.4375 L 12.6875 49.4375 L 12.6875 31.117188 L 13.179688 30.855469 C 15.355469 29.695312 15.398438 26.445312 13.257812 25.210938 L 12.699219 24.882812 L 12.6875 15.71875 L 12.6875 6.5625 L 14.765625 6.5625 Z M 38.90625 9.15625 C 38.839844 11.933594 38.652344 13.617188 38.226562 15.335938 C 37.800781 17.039062 37.703125 17.183594 36.835938 17.476562 C 35.679688 17.859375 34.210938 18.003906 33.007812 17.851562 C 31.378906 17.652344 30.164062 17.171875 28.667969 16.164062 C 25.550781 14.042969 21.796875 13.476562 18.496094 14.589844 C 18.046875 14.742188 17.664062 14.851562 17.652344 14.84375 C 17.640625 14.832031 17.554688 14.351562 17.457031 13.78125 C 17.214844 12.316406 17.074219 10.523438 17.03125 8.390625 L 16.996094 6.5625 L 38.96875 6.5625 Z M 43.3125 15.71875 L 43.300781 24.882812 L 42.742188 25.210938 C 40.601562 26.445312 40.644531 29.695312 42.820312 30.855469 L 43.3125 31.117188 L 43.3125 49.4375 L 41.15625 49.4375 L 41.09375 47.054688 C 40.949219 42.25 40.335938 39.234375 38.96875 36.628906 C 38.160156 35.078125 38.007812 34.902344 32.800781 29.3125 L 31.632812 28.042969 L 34.53125 24.882812 C 36.117188 23.132812 37.667969 21.394531 37.964844 21 C 39.15625 19.402344 40.042969 17.324219 40.523438 14.929688 C 40.882812 13.148438 41.003906 11.855469 41.09375 8.992188 L 41.15625 6.5625 L 43.3125 6.5625 Z M 24.171875 16.472656 C 25.113281 16.703125 26.457031 17.335938 27.507812 18.046875 C 28.644531 18.8125 29.96875 19.425781 31.257812 19.773438 C 32.199219 20.027344 32.527344 20.058594 34.148438 20.058594 L 35.972656 20.070312 L 35.613281 20.453125 C 34.203125 21.953125 29.421875 27.234375 29.289062 27.453125 C 29.191406 27.617188 29.09375 28.109375 29.050781 28.65625 C 28.984375 29.683594 28.6875 30.832031 28.285156 31.742188 L 28.023438 32.320312 L 27.75 31.71875 C 27.410156 30.953125 27.046875 29.488281 26.949219 28.4375 C 26.917969 27.988281 26.828125 27.507812 26.753906 27.375 C 26.6875 27.257812 25.84375 26.292969 24.882812 25.253906 C 23.921875 24.214844 22.421875 22.597656 21.558594 21.667969 C 19.949219 19.929688 19.226562 18.953125 18.648438 17.742188 C 18.277344 16.941406 18.265625 16.964844 19.359375 16.625 C 20.847656 16.164062 22.664062 16.109375 24.171875 16.472656 Z M 12.128906 27.058594 C 12.882812 27.453125 12.828125 28.65625 12.042969 28.984375 C 11.320312 29.28125 10.578125 28.777344 10.578125 28 C 10.578125 27.15625 11.375 26.675781 12.128906 27.058594 Z M 44.941406 27.058594 C 45.695312 27.453125 45.640625 28.65625 44.855469 28.984375 C 44.132812 29.28125 43.390625 28.777344 43.390625 28 C 43.390625 27.15625 44.1875 26.675781 44.941406 27.058594 Z M 26.261719 33.699219 C 27.179688 35.480469 27.726562 35.917969 28.546875 35.492188 C 29.070312 35.21875 30.242188 33.054688 30.734375 31.457031 C 30.875 30.996094 31.019531 30.625 31.050781 30.636719 C 31.25 30.65625 36.027344 36.015625 36.542969 36.78125 C 37.886719 38.796875 38.664062 41.628906 38.871094 45.390625 L 38.9375 46.539062 L 38.652344 46.210938 C 38.488281 46.023438 37.984375 45.445312 37.527344 44.921875 C 36.015625 43.171875 33.828125 41.421875 31.566406 40.128906 C 30.132812 39.308594 28.371094 38.5 28.023438 38.5 C 27.726562 38.5 24.804688 39.953125 23.59375 40.699219 C 21.613281 41.921875 19.402344 43.816406 18.132812 45.347656 C 17.796875 45.761719 17.414062 46.222656 17.28125 46.375 L 17.050781 46.648438 L 17.105469 45.226562 C 17.292969 41.191406 18.210938 38.140625 19.882812 36.027344 C 20.113281 35.734375 21.359375 34.34375 22.640625 32.945312 L 24.96875 30.382812 L 25.332031 31.488281 C 25.527344 32.101562 25.953125 33.097656 26.261719 33.699219 Z M 29.453125 41.476562 C 32.945312 43.257812 36.015625 45.992188 37.964844 49.078125 L 38.195312 49.4375 L 28.066406 49.4375 C 22.5 49.4375 17.9375 49.40625 17.9375 49.351562 C 17.949219 49.304688 18.234375 48.867188 18.570312 48.375 C 20.617188 45.457031 23.023438 43.398438 26.523438 41.59375 C 27.367188 41.15625 28.066406 40.796875 28.085938 40.796875 C 28.109375 40.796875 28.722656 41.101562 29.453125 41.476562 Z M 44.800781 51.789062 C 45.257812 51.976562 45.5 52.476562 45.5 53.265625 L 45.5 53.8125 L 10.5 53.8125 L 10.5 53.265625 C 10.5 52.5 10.742188 51.984375 11.179688 51.789062 C 11.726562 51.546875 44.230469 51.546875 44.800781 51.789062 Z M 44.800781 51.789062 "/>
<path style=" stroke:none;fill-rule:nonzero;fill:rgb(0%,0%,0%);fill-opacity:1;" d="M 24.007812 45.324219 C 23.4375 45.894531 23.601562 46.789062 24.335938 47.097656 C 25.40625 47.546875 26.28125 46.296875 25.527344 45.402344 C 25.289062 45.117188 25.167969 45.0625 24.761719 45.0625 C 24.390625 45.0625 24.203125 45.128906 24.007812 45.324219 Z M 24.007812 45.324219 "/>
<path style=" stroke:none;fill-rule:nonzero;fill:rgb(0%,0%,0%);fill-opacity:1;" d="M 28.371094 45.433594 C 28.109375 45.695312 28 45.90625 28 46.15625 C 28 46.40625 28.109375 46.605469 28.371094 46.878906 L 28.742188 47.25 L 31.742188 47.25 L 32.058594 46.933594 C 32.308594 46.679688 32.375 46.515625 32.375 46.15625 C 32.375 45.796875 32.308594 45.632812 32.058594 45.378906 L 31.742188 45.0625 L 28.742188 45.0625 Z M 28.371094 45.433594 "/>
</g>
</svg>
